<svg width="149" height="135" viewBox="0 0 149 135" fill="none" xmlns="http://www.w3.org/2000/svg">
<path fill-rule="evenodd" clip-rule="evenodd" d="M149 72.5823C145.954 107.185 113.763 134.412 74.5 134.412C35.2372 134.412 3.04585 107.185 0 72.5823H39.3745C42.8368 87.9203 57.9166 99.4647 75.9948 99.4647C94.0731 99.4647 109.153 87.9203 112.615 72.5823H149ZM145.327 45.7H105.892C99.0744 37.5382 88.2202 32.2588 75.9948 32.2588C63.7694 32.2588 52.9153 37.5382 46.0978 45.7H3.67267C13.6457 19.1304 41.5884 0 74.5 0C107.412 0 135.354 19.1304 145.327 45.7Z" fill="#D1D0D0"/>
<ellipse cx="76.2305" cy="65.8618" rx="22.4207" ry="20.1618" fill="#A2A2A2"/>
</svg>
