<svg width="900" height="900" viewBox="0 0 900 900" fill="none" xmlns="http://www.w3.org/2000/svg">
<path fill-rule="evenodd" clip-rule="evenodd" d="M900 0H0V900H900V0ZM450 875C684.721 875 875 684.721 875 450C875 215.279 684.721 25 450 25C215.279 25 25 215.279 25 450C25 684.721 215.279 875 450 875Z" fill="white"/>
<path fill-rule="evenodd" clip-rule="evenodd" d="M450 900C698.528 900 900 698.528 900 450C900 201.472 698.528 0 450 0C201.472 0 0 201.472 0 450C0 698.528 201.472 900 450 900ZM450 875C684.721 875 875 684.721 875 450C875 215.279 684.721 25 450 25C215.279 25 25 215.279 25 450C25 684.721 215.279 875 450 875Z" fill="black"/>
</svg>
